<svg width="1920" height="1080" viewBox="0 0 1920 1080" fill="none" xmlns="http://www.w3.org/2000/svg">
<g clip-path="url(#clip0_1001_186)">
<rect width="1920" height="1080" fill="#B0B0B0"/>
<rect width="1920" height="1080" fill="#BDBDBD"/>
<g clip-path="url(#clip1_1001_186)">
<path d="M150 161C137.277 161 127 150.723 127 138C127 125.277 137.277 115 150 115C162.723 115 173 125.277 173 138C173 150.723 162.723 161 150 161Z" fill="#8D8D8D"/>
<path d="M150 149.011C143.883 149.011 138.989 144.117 138.989 138C138.989 131.883 143.883 126.989 150 126.989C156.117 126.989 161.011 131.883 161.011 138C161.011 144.117 156.117 149.011 150 149.011Z" fill="#BDBDBD"/>
</g>
<g clip-path="url(#clip2_1001_186)">
<path d="M553 161C540.277 161 530 150.723 530 138C530 125.277 540.277 115 553 115C565.723 115 576 125.277 576 138C576 150.723 565.723 161 553 161Z" fill="#8D8D8D"/>
<path d="M553 149.011C546.883 149.011 541.989 144.117 541.989 138C541.989 131.883 546.883 126.989 553 126.989C559.117 126.989 564.011 131.883 564.011 138C564.011 144.117 559.117 149.011 553 149.011Z" fill="#BDBDBD"/>
</g>
<g clip-path="url(#clip3_1001_186)">
<path d="M956 161C943.277 161 933 150.723 933 138C933 125.277 943.277 115 956 115C968.723 115 979 125.277 979 138C979 150.723 968.723 161 956 161Z" fill="#8D8D8D"/>
<path d="M956 149.011C949.883 149.011 944.989 144.117 944.989 138C944.989 131.883 949.883 126.989 956 126.989C962.117 126.989 967.011 131.883 967.011 138C967.011 144.117 962.117 149.011 956 149.011Z" fill="#BDBDBD"/>
</g>
<g clip-path="url(#clip4_1001_186)">
<path d="M1359 161C1346.28 161 1336 150.723 1336 138C1336 125.277 1346.28 115 1359 115C1371.72 115 1382 125.277 1382 138C1382 150.723 1371.72 161 1359 161Z" fill="#8D8D8D"/>
<path d="M1359 149.011C1352.88 149.011 1347.99 144.117 1347.99 138C1347.99 131.883 1352.88 126.989 1359 126.989C1365.12 126.989 1370.01 131.883 1370.01 138C1370.01 144.117 1365.12 149.011 1359 149.011Z" fill="#BDBDBD"/>
</g>
<g clip-path="url(#clip5_1001_186)">
<path d="M1762 161C1749.28 161 1739 150.723 1739 138C1739 125.277 1749.28 115 1762 115C1774.72 115 1785 125.277 1785 138C1785 150.723 1774.72 161 1762 161Z" fill="#8D8D8D"/>
<path d="M1762 149.011C1755.88 149.011 1750.99 144.117 1750.99 138C1750.99 131.883 1755.88 126.989 1762 126.989C1768.12 126.989 1773.01 131.883 1773.01 138C1773.01 144.117 1768.12 149.011 1762 149.011Z" fill="#BDBDBD"/>
</g>
<g clip-path="url(#clip6_1001_186)">
<path d="M328.354 149.69L365.398 113.809L374.848 123.613L337.855 159.495L328.354 149.69Z" fill="#8D8D8D"/>
<path d="M364.64 159.899L328.809 122.855L338.613 113.354L374.444 150.448L364.64 159.899Z" fill="#8D8D8D"/>
</g>
<g clip-path="url(#clip7_1001_186)">
<path d="M731.354 149.69L768.398 113.809L777.848 123.613L740.855 159.495L731.354 149.69Z" fill="#8D8D8D"/>
<path d="M767.64 159.899L731.809 122.855L741.613 113.354L777.444 150.448L767.64 159.899Z" fill="#8D8D8D"/>
</g>
<g clip-path="url(#clip8_1001_186)">
<path d="M1134.35 149.69L1171.4 113.809L1180.85 123.613L1143.85 159.495L1134.35 149.69Z" fill="#8D8D8D"/>
<path d="M1170.64 159.899L1134.81 122.855L1144.61 113.354L1180.44 150.448L1170.64 159.899Z" fill="#8D8D8D"/>
</g>
<g clip-path="url(#clip9_1001_186)">
<path d="M1537.35 149.69L1574.4 113.809L1583.85 123.613L1546.85 159.495L1537.35 149.69Z" fill="#8D8D8D"/>
<path d="M1573.64 159.899L1537.81 122.855L1547.61 113.354L1583.44 150.448L1573.64 159.899Z" fill="#8D8D8D"/>
</g>
<g clip-path="url(#clip10_1001_186)">
<path d="M150 564C137.277 564 127 553.723 127 541C127 528.277 137.277 518 150 518C162.723 518 173 528.277 173 541C173 553.723 162.723 564 150 564Z" fill="#8D8D8D"/>
<path d="M150 552.011C143.883 552.011 138.989 547.117 138.989 541C138.989 534.883 143.883 529.989 150 529.989C156.117 529.989 161.011 534.883 161.011 541C161.011 547.117 156.117 552.011 150 552.011Z" fill="#BDBDBD"/>
</g>
<g clip-path="url(#clip11_1001_186)">
<path d="M553 564C540.277 564 530 553.723 530 541C530 528.277 540.277 518 553 518C565.723 518 576 528.277 576 541C576 553.723 565.723 564 553 564Z" fill="#8D8D8D"/>
<path d="M553 552.011C546.883 552.011 541.989 547.117 541.989 541C541.989 534.883 546.883 529.989 553 529.989C559.117 529.989 564.011 534.883 564.011 541C564.011 547.117 559.117 552.011 553 552.011Z" fill="#BDBDBD"/>
</g>
<g clip-path="url(#clip12_1001_186)">
<path d="M956 564C943.277 564 933 553.723 933 541C933 528.277 943.277 518 956 518C968.723 518 979 528.277 979 541C979 553.723 968.723 564 956 564Z" fill="#8D8D8D"/>
<path d="M956 552.011C949.883 552.011 944.989 547.117 944.989 541C944.989 534.883 949.883 529.989 956 529.989C962.117 529.989 967.011 534.883 967.011 541C967.011 547.117 962.117 552.011 956 552.011Z" fill="#BDBDBD"/>
</g>
<g clip-path="url(#clip13_1001_186)">
<path d="M1359 564C1346.28 564 1336 553.723 1336 541C1336 528.277 1346.28 518 1359 518C1371.72 518 1382 528.277 1382 541C1382 553.723 1371.72 564 1359 564Z" fill="#8D8D8D"/>
<path d="M1359 552.011C1352.88 552.011 1347.99 547.117 1347.99 541C1347.99 534.883 1352.88 529.989 1359 529.989C1365.12 529.989 1370.01 534.883 1370.01 541C1370.01 547.117 1365.12 552.011 1359 552.011Z" fill="#BDBDBD"/>
</g>
<g clip-path="url(#clip14_1001_186)">
<path d="M1762 564C1749.28 564 1739 553.723 1739 541C1739 528.277 1749.28 518 1762 518C1774.72 518 1785 528.277 1785 541C1785 553.723 1774.72 564 1762 564Z" fill="#8D8D8D"/>
<path d="M1762 552.011C1755.88 552.011 1750.99 547.117 1750.99 541C1750.99 534.883 1755.88 529.989 1762 529.989C1768.12 529.989 1773.01 534.883 1773.01 541C1773.01 547.117 1768.12 552.011 1762 552.011Z" fill="#BDBDBD"/>
</g>
<g clip-path="url(#clip15_1001_186)">
<path d="M328.354 552.69L365.398 516.809L374.848 526.613L337.855 562.495L328.354 552.69Z" fill="#8D8D8D"/>
<path d="M364.64 562.899L328.809 525.855L338.613 516.354L374.444 553.448L364.64 562.899Z" fill="#8D8D8D"/>
</g>
<g clip-path="url(#clip16_1001_186)">
<path d="M731.354 552.69L768.398 516.809L777.848 526.613L740.855 562.495L731.354 552.69Z" fill="#8D8D8D"/>
<path d="M767.64 562.899L731.809 525.855L741.613 516.354L777.444 553.448L767.64 562.899Z" fill="#8D8D8D"/>
</g>
<g clip-path="url(#clip17_1001_186)">
<path d="M1134.35 552.69L1171.4 516.809L1180.85 526.613L1143.85 562.495L1134.35 552.69Z" fill="#8D8D8D"/>
<path d="M1170.64 562.899L1134.81 525.855L1144.61 516.354L1180.44 553.448L1170.64 562.899Z" fill="#8D8D8D"/>
</g>
<g clip-path="url(#clip18_1001_186)">
<path d="M1537.35 552.69L1574.4 516.809L1583.85 526.613L1546.85 562.495L1537.35 552.69Z" fill="#8D8D8D"/>
<path d="M1573.64 562.899L1537.81 525.855L1547.61 516.354L1583.44 553.448L1573.64 562.899Z" fill="#8D8D8D"/>
</g>
<g clip-path="url(#clip19_1001_186)">
<path d="M150 967C137.277 967 127 956.723 127 944C127 931.277 137.277 921 150 921C162.723 921 173 931.277 173 944C173 956.723 162.723 967 150 967Z" fill="#8D8D8D"/>
<path d="M150 955.011C143.883 955.011 138.989 950.117 138.989 944C138.989 937.883 143.883 932.989 150 932.989C156.117 932.989 161.011 937.883 161.011 944C161.011 950.117 156.117 955.011 150 955.011Z" fill="#BDBDBD"/>
</g>
<g clip-path="url(#clip20_1001_186)">
<path d="M553 967C540.277 967 530 956.723 530 944C530 931.277 540.277 921 553 921C565.723 921 576 931.277 576 944C576 956.723 565.723 967 553 967Z" fill="#8D8D8D"/>
<path d="M553 955.011C546.883 955.011 541.989 950.117 541.989 944C541.989 937.883 546.883 932.989 553 932.989C559.117 932.989 564.011 937.883 564.011 944C564.011 950.117 559.117 955.011 553 955.011Z" fill="#BDBDBD"/>
</g>
<g clip-path="url(#clip21_1001_186)">
<path d="M956 967C943.277 967 933 956.723 933 944C933 931.277 943.277 921 956 921C968.723 921 979 931.277 979 944C979 956.723 968.723 967 956 967Z" fill="#8D8D8D"/>
<path d="M956 955.011C949.883 955.011 944.989 950.117 944.989 944C944.989 937.883 949.883 932.989 956 932.989C962.117 932.989 967.011 937.883 967.011 944C967.011 950.117 962.117 955.011 956 955.011Z" fill="#BDBDBD"/>
</g>
<g clip-path="url(#clip22_1001_186)">
<path d="M1359 967C1346.28 967 1336 956.723 1336 944C1336 931.277 1346.28 921 1359 921C1371.72 921 1382 931.277 1382 944C1382 956.723 1371.72 967 1359 967Z" fill="#8D8D8D"/>
<path d="M1359 955.011C1352.88 955.011 1347.99 950.117 1347.99 944C1347.99 937.883 1352.88 932.989 1359 932.989C1365.12 932.989 1370.01 937.883 1370.01 944C1370.01 950.117 1365.12 955.011 1359 955.011Z" fill="#BDBDBD"/>
</g>
<g clip-path="url(#clip23_1001_186)">
<path d="M1762 967C1749.28 967 1739 956.723 1739 944C1739 931.277 1749.28 921 1762 921C1774.72 921 1785 931.277 1785 944C1785 956.723 1774.72 967 1762 967Z" fill="#8D8D8D"/>
<path d="M1762 955.011C1755.88 955.011 1750.99 950.117 1750.99 944C1750.99 937.883 1755.88 932.989 1762 932.989C1768.12 932.989 1773.01 937.883 1773.01 944C1773.01 950.117 1768.12 955.011 1762 955.011Z" fill="#BDBDBD"/>
</g>
<g clip-path="url(#clip24_1001_186)">
<path d="M328.354 955.69L365.398 919.809L374.848 929.613L337.855 965.495L328.354 955.69Z" fill="#8D8D8D"/>
<path d="M364.64 965.899L328.809 928.855L338.613 919.354L374.444 956.448L364.64 965.899Z" fill="#8D8D8D"/>
</g>
<g clip-path="url(#clip25_1001_186)">
<path d="M731.354 955.69L768.398 919.809L777.848 929.613L740.855 965.495L731.354 955.69Z" fill="#8D8D8D"/>
<path d="M767.64 965.899L731.809 928.855L741.613 919.354L777.444 956.448L767.64 965.899Z" fill="#8D8D8D"/>
</g>
<g clip-path="url(#clip26_1001_186)">
<path d="M1134.35 955.69L1171.4 919.809L1180.85 929.613L1143.85 965.495L1134.35 955.69Z" fill="#8D8D8D"/>
<path d="M1170.64 965.899L1134.81 928.855L1144.61 919.354L1180.44 956.448L1170.64 965.899Z" fill="#8D8D8D"/>
</g>
<g clip-path="url(#clip27_1001_186)">
<path d="M1537.35 955.69L1574.4 919.809L1583.85 929.613L1546.85 965.495L1537.35 955.69Z" fill="#8D8D8D"/>
<path d="M1573.64 965.899L1537.81 928.855L1547.61 919.354L1583.44 956.448L1573.64 965.899Z" fill="#8D8D8D"/>
</g>
<g clip-path="url(#clip28_1001_186)">
<path d="M353 363C340.277 363 330 352.723 330 340C330 327.277 340.277 317 353 317C365.723 317 376 327.277 376 340C376 352.723 365.723 363 353 363Z" fill="#8D8D8D"/>
<path d="M353 351.011C346.883 351.011 341.989 346.117 341.989 340C341.989 333.883 346.883 328.989 353 328.989C359.117 328.989 364.011 333.883 364.011 340C364.011 346.117 359.117 351.011 353 351.011Z" fill="#BDBDBD"/>
</g>
<g clip-path="url(#clip29_1001_186)">
<path d="M756 363C743.277 363 733 352.723 733 340C733 327.277 743.277 317 756 317C768.723 317 779 327.277 779 340C779 352.723 768.723 363 756 363Z" fill="#8D8D8D"/>
<path d="M756 351.011C749.883 351.011 744.989 346.117 744.989 340C744.989 333.883 749.883 328.989 756 328.989C762.117 328.989 767.011 333.883 767.011 340C767.011 346.117 762.117 351.011 756 351.011Z" fill="#BDBDBD"/>
</g>
<g clip-path="url(#clip30_1001_186)">
<path d="M1159 363C1146.28 363 1136 352.723 1136 340C1136 327.277 1146.28 317 1159 317C1171.72 317 1182 327.277 1182 340C1182 352.723 1171.72 363 1159 363Z" fill="#8D8D8D"/>
<path d="M1159 351.011C1152.88 351.011 1147.99 346.117 1147.99 340C1147.99 333.883 1152.88 328.989 1159 328.989C1165.12 328.989 1170.01 333.883 1170.01 340C1170.01 346.117 1165.12 351.011 1159 351.011Z" fill="#BDBDBD"/>
</g>
<g clip-path="url(#clip31_1001_186)">
<path d="M1562 363C1549.28 363 1539 352.723 1539 340C1539 327.277 1549.28 317 1562 317C1574.72 317 1585 327.277 1585 340C1585 352.723 1574.72 363 1562 363Z" fill="#8D8D8D"/>
<path d="M1562 351.011C1555.88 351.011 1550.99 346.117 1550.99 340C1550.99 333.883 1555.88 328.989 1562 328.989C1568.12 328.989 1573.01 333.883 1573.01 340C1573.01 346.117 1568.12 351.011 1562 351.011Z" fill="#BDBDBD"/>
</g>
<g clip-path="url(#clip32_1001_186)">
<path d="M125.354 351.69L162.398 315.809L171.848 325.613L134.855 361.495L125.354 351.69Z" fill="#8D8D8D"/>
<path d="M161.64 361.899L125.809 324.855L135.613 315.354L171.444 352.448L161.64 361.899Z" fill="#8D8D8D"/>
</g>
<g clip-path="url(#clip33_1001_186)">
<path d="M528.354 351.69L565.398 315.809L574.848 325.613L537.855 361.495L528.354 351.69Z" fill="#8D8D8D"/>
<path d="M564.64 361.899L528.809 324.855L538.613 315.354L574.444 352.448L564.64 361.899Z" fill="#8D8D8D"/>
</g>
<g clip-path="url(#clip34_1001_186)">
<path d="M931.354 351.69L968.398 315.809L977.848 325.613L940.855 361.495L931.354 351.69Z" fill="#8D8D8D"/>
<path d="M967.64 361.899L931.809 324.855L941.613 315.354L977.444 352.448L967.64 361.899Z" fill="#8D8D8D"/>
</g>
<g clip-path="url(#clip35_1001_186)">
<path d="M1334.35 351.69L1371.4 315.809L1380.85 325.613L1343.85 361.495L1334.35 351.69Z" fill="#8D8D8D"/>
<path d="M1370.64 361.899L1334.81 324.855L1344.61 315.354L1380.44 352.448L1370.64 361.899Z" fill="#8D8D8D"/>
</g>
<g clip-path="url(#clip36_1001_186)">
<path d="M1737.35 351.69L1774.4 315.809L1783.85 325.613L1746.85 361.495L1737.35 351.69Z" fill="#8D8D8D"/>
<path d="M1773.64 361.899L1737.81 324.855L1747.61 315.354L1783.44 352.448L1773.64 361.899Z" fill="#8D8D8D"/>
</g>
<g clip-path="url(#clip37_1001_186)">
<path d="M353 765C340.277 765 330 754.723 330 742C330 729.277 340.277 719 353 719C365.723 719 376 729.277 376 742C376 754.723 365.723 765 353 765Z" fill="#8D8D8D"/>
<path d="M353 753.011C346.883 753.011 341.989 748.117 341.989 742C341.989 735.883 346.883 730.989 353 730.989C359.117 730.989 364.011 735.883 364.011 742C364.011 748.117 359.117 753.011 353 753.011Z" fill="#BDBDBD"/>
</g>
<g clip-path="url(#clip38_1001_186)">
<path d="M756 765C743.277 765 733 754.723 733 742C733 729.277 743.277 719 756 719C768.723 719 779 729.277 779 742C779 754.723 768.723 765 756 765Z" fill="#8D8D8D"/>
<path d="M756 753.011C749.883 753.011 744.989 748.117 744.989 742C744.989 735.883 749.883 730.989 756 730.989C762.117 730.989 767.011 735.883 767.011 742C767.011 748.117 762.117 753.011 756 753.011Z" fill="#BDBDBD"/>
</g>
<g clip-path="url(#clip39_1001_186)">
<path d="M1159 765C1146.28 765 1136 754.723 1136 742C1136 729.277 1146.28 719 1159 719C1171.72 719 1182 729.277 1182 742C1182 754.723 1171.72 765 1159 765Z" fill="#8D8D8D"/>
<path d="M1159 753.011C1152.88 753.011 1147.99 748.117 1147.99 742C1147.99 735.883 1152.88 730.989 1159 730.989C1165.12 730.989 1170.01 735.883 1170.01 742C1170.01 748.117 1165.12 753.011 1159 753.011Z" fill="#BDBDBD"/>
</g>
<g clip-path="url(#clip40_1001_186)">
<path d="M1562 765C1549.28 765 1539 754.723 1539 742C1539 729.277 1549.28 719 1562 719C1574.72 719 1585 729.277 1585 742C1585 754.723 1574.72 765 1562 765Z" fill="#8D8D8D"/>
<path d="M1562 753.011C1555.88 753.011 1550.99 748.117 1550.99 742C1550.99 735.883 1555.88 730.989 1562 730.989C1568.12 730.989 1573.01 735.883 1573.01 742C1573.01 748.117 1568.12 753.011 1562 753.011Z" fill="#BDBDBD"/>
</g>
<g clip-path="url(#clip41_1001_186)">
<path d="M125.354 753.69L162.398 717.809L171.848 727.613L134.855 763.495L125.354 753.69Z" fill="#8D8D8D"/>
<path d="M161.64 763.899L125.809 726.855L135.613 717.354L171.444 754.448L161.64 763.899Z" fill="#8D8D8D"/>
</g>
<g clip-path="url(#clip42_1001_186)">
<path d="M528.354 753.69L565.398 717.809L574.848 727.613L537.855 763.495L528.354 753.69Z" fill="#8D8D8D"/>
<path d="M564.64 763.899L528.809 726.855L538.613 717.354L574.444 754.448L564.64 763.899Z" fill="#8D8D8D"/>
</g>
<g clip-path="url(#clip43_1001_186)">
<path d="M931.354 753.69L968.398 717.809L977.848 727.613L940.855 763.495L931.354 753.69Z" fill="#8D8D8D"/>
<path d="M967.64 763.899L931.809 726.855L941.613 717.354L977.444 754.448L967.64 763.899Z" fill="#8D8D8D"/>
</g>
<g clip-path="url(#clip44_1001_186)">
<path d="M1334.35 753.69L1371.4 717.809L1380.85 727.613L1343.85 763.495L1334.35 753.69Z" fill="#8D8D8D"/>
<path d="M1370.64 763.899L1334.81 726.855L1344.61 717.354L1380.44 754.448L1370.64 763.899Z" fill="#8D8D8D"/>
</g>
<g clip-path="url(#clip45_1001_186)">
<path d="M1737.35 753.69L1774.4 717.809L1783.85 727.613L1746.85 763.495L1737.35 753.69Z" fill="#8D8D8D"/>
<path d="M1773.64 763.899L1737.81 726.855L1747.61 717.354L1783.44 754.448L1773.64 763.899Z" fill="#8D8D8D"/>
</g>
</g>
<defs>
<clipPath id="clip0_1001_186">
<rect width="1920" height="1080" fill="white"/>
</clipPath>
<clipPath id="clip1_1001_186">
<rect width="46" height="46" fill="white" transform="translate(127 115)"/>
</clipPath>
<clipPath id="clip2_1001_186">
<rect width="46" height="46" fill="white" transform="translate(530 115)"/>
</clipPath>
<clipPath id="clip3_1001_186">
<rect width="46" height="46" fill="white" transform="translate(933 115)"/>
</clipPath>
<clipPath id="clip4_1001_186">
<rect width="46" height="46" fill="white" transform="translate(1336 115)"/>
</clipPath>
<clipPath id="clip5_1001_186">
<rect width="46" height="46" fill="white" transform="translate(1739 115)"/>
</clipPath>
<clipPath id="clip6_1001_186">
<rect width="47" height="47" fill="white" transform="translate(328 113)"/>
</clipPath>
<clipPath id="clip7_1001_186">
<rect width="47" height="47" fill="white" transform="translate(731 113)"/>
</clipPath>
<clipPath id="clip8_1001_186">
<rect width="47" height="47" fill="white" transform="translate(1134 113)"/>
</clipPath>
<clipPath id="clip9_1001_186">
<rect width="47" height="47" fill="white" transform="translate(1537 113)"/>
</clipPath>
<clipPath id="clip10_1001_186">
<rect width="46" height="46" fill="white" transform="translate(127 518)"/>
</clipPath>
<clipPath id="clip11_1001_186">
<rect width="46" height="46" fill="white" transform="translate(530 518)"/>
</clipPath>
<clipPath id="clip12_1001_186">
<rect width="46" height="46" fill="white" transform="translate(933 518)"/>
</clipPath>
<clipPath id="clip13_1001_186">
<rect width="46" height="46" fill="white" transform="translate(1336 518)"/>
</clipPath>
<clipPath id="clip14_1001_186">
<rect width="46" height="46" fill="white" transform="translate(1739 518)"/>
</clipPath>
<clipPath id="clip15_1001_186">
<rect width="47" height="47" fill="white" transform="translate(328 516)"/>
</clipPath>
<clipPath id="clip16_1001_186">
<rect width="47" height="47" fill="white" transform="translate(731 516)"/>
</clipPath>
<clipPath id="clip17_1001_186">
<rect width="47" height="47" fill="white" transform="translate(1134 516)"/>
</clipPath>
<clipPath id="clip18_1001_186">
<rect width="47" height="47" fill="white" transform="translate(1537 516)"/>
</clipPath>
<clipPath id="clip19_1001_186">
<rect width="46" height="46" fill="white" transform="translate(127 921)"/>
</clipPath>
<clipPath id="clip20_1001_186">
<rect width="46" height="46" fill="white" transform="translate(530 921)"/>
</clipPath>
<clipPath id="clip21_1001_186">
<rect width="46" height="46" fill="white" transform="translate(933 921)"/>
</clipPath>
<clipPath id="clip22_1001_186">
<rect width="46" height="46" fill="white" transform="translate(1336 921)"/>
</clipPath>
<clipPath id="clip23_1001_186">
<rect width="46" height="46" fill="white" transform="translate(1739 921)"/>
</clipPath>
<clipPath id="clip24_1001_186">
<rect width="47" height="47" fill="white" transform="translate(328 919)"/>
</clipPath>
<clipPath id="clip25_1001_186">
<rect width="47" height="47" fill="white" transform="translate(731 919)"/>
</clipPath>
<clipPath id="clip26_1001_186">
<rect width="47" height="47" fill="white" transform="translate(1134 919)"/>
</clipPath>
<clipPath id="clip27_1001_186">
<rect width="47" height="47" fill="white" transform="translate(1537 919)"/>
</clipPath>
<clipPath id="clip28_1001_186">
<rect width="46" height="46" fill="white" transform="translate(330 317)"/>
</clipPath>
<clipPath id="clip29_1001_186">
<rect width="46" height="46" fill="white" transform="translate(733 317)"/>
</clipPath>
<clipPath id="clip30_1001_186">
<rect width="46" height="46" fill="white" transform="translate(1136 317)"/>
</clipPath>
<clipPath id="clip31_1001_186">
<rect width="46" height="46" fill="white" transform="translate(1539 317)"/>
</clipPath>
<clipPath id="clip32_1001_186">
<rect width="47" height="47" fill="white" transform="translate(125 315)"/>
</clipPath>
<clipPath id="clip33_1001_186">
<rect width="47" height="47" fill="white" transform="translate(528 315)"/>
</clipPath>
<clipPath id="clip34_1001_186">
<rect width="47" height="47" fill="white" transform="translate(931 315)"/>
</clipPath>
<clipPath id="clip35_1001_186">
<rect width="47" height="47" fill="white" transform="translate(1334 315)"/>
</clipPath>
<clipPath id="clip36_1001_186">
<rect width="47" height="47" fill="white" transform="translate(1737 315)"/>
</clipPath>
<clipPath id="clip37_1001_186">
<rect width="46" height="46" fill="white" transform="translate(330 719)"/>
</clipPath>
<clipPath id="clip38_1001_186">
<rect width="46" height="46" fill="white" transform="translate(733 719)"/>
</clipPath>
<clipPath id="clip39_1001_186">
<rect width="46" height="46" fill="white" transform="translate(1136 719)"/>
</clipPath>
<clipPath id="clip40_1001_186">
<rect width="46" height="46" fill="white" transform="translate(1539 719)"/>
</clipPath>
<clipPath id="clip41_1001_186">
<rect width="47" height="47" fill="white" transform="translate(125 717)"/>
</clipPath>
<clipPath id="clip42_1001_186">
<rect width="47" height="47" fill="white" transform="translate(528 717)"/>
</clipPath>
<clipPath id="clip43_1001_186">
<rect width="47" height="47" fill="white" transform="translate(931 717)"/>
</clipPath>
<clipPath id="clip44_1001_186">
<rect width="47" height="47" fill="white" transform="translate(1334 717)"/>
</clipPath>
<clipPath id="clip45_1001_186">
<rect width="47" height="47" fill="white" transform="translate(1737 717)"/>
</clipPath>
</defs>
</svg>
