<svg width="167" height="167" viewBox="0 0 167 167" fill="none" xmlns="http://www.w3.org/2000/svg">
<mask id="mask0_1001_191" style="mask-type:alpha" maskUnits="userSpaceOnUse" x="40" y="41" width="86" height="86">
<rect x="40.9697" y="41.1819" width="84.8485" height="84.8485" fill="white"/>
</mask>
<g mask="url(#mask0_1001_191)">
<path fill-rule="evenodd" clip-rule="evenodd" d="M83.394 114.122C100.247 114.122 113.91 100.459 113.91 83.6061C113.91 66.7528 100.247 53.0904 83.394 53.0904C66.5406 53.0904 52.8783 66.7528 52.8783 83.6061C52.8783 100.459 66.5406 114.122 83.394 114.122ZM83.394 126.03C106.824 126.03 125.818 107.036 125.818 83.6061C125.818 60.1759 106.824 41.1819 83.394 41.1819C59.9637 41.1819 40.9697 60.1759 40.9697 83.6061C40.9697 107.036 59.9637 126.03 83.394 126.03Z" fill="#707070"/>
</g>
</svg>
