<svg width="167" height="167" viewBox="0 0 167 167" fill="none" xmlns="http://www.w3.org/2000/svg">
<mask id="mask0_1001_191" style="mask-type:alpha" maskUnits="userSpaceOnUse" x="40" y="41" width="86" height="86">
<rect x="40.9697" y="41.1819" width="84.8485" height="84.8485" fill="white"/>
</mask>
<g mask="url(#mask0_1001_191)">
<path fill-rule="evenodd" clip-rule="evenodd" d="M42.4957 117.136C40.4611 119.171 40.4611 122.47 42.4957 124.504C44.5303 126.539 47.8291 126.539 49.8637 124.504L83.394 90.9742L116.924 124.504C118.959 126.539 122.258 126.539 124.292 124.504C126.327 122.47 126.327 119.171 124.292 117.136L90.762 83.6061L124.292 50.0759C126.327 48.0413 126.327 44.7425 124.292 42.7079C122.258 40.6732 118.959 40.6732 116.924 42.7079L83.394 76.2381L49.8638 42.7079C47.8291 40.6732 44.5303 40.6732 42.4957 42.7079C40.4611 44.7425 40.4611 48.0413 42.4957 50.0759L76.0259 83.6061L42.4957 117.136Z" fill="#707070"/>
</g>
</svg>
